<svg width="8002" height="8002" viewBox="0 0 8002 8002" fill="none" xmlns="http://www.w3.org/2000/svg">
<path d="M7661.57 3078.83C7763.94 3019.72 7894.61 3073.71 7918.69 3189.44C8041.93 3782.05 8032.05 4411.7 7864.7 5036.27C7292.93 7170.13 5099.58 8436.46 2965.72 7864.7C2341.15 7697.34 1790.91 7391.08 1339.32 6988.04C1251.13 6909.33 1269.71 6769.17 1372.08 6710.06L2969.15 5788C3121.93 5876.09 3288.61 5945.88 3467.05 5993.7C4567.59 6288.59 5698.81 5635.48 5993.7 4534.94C6041.51 4356.49 6064.4 4177.25 6064.5 4000.89L7661.57 3078.83ZM4973.6 2181.13C5644.95 2539.17 6064.94 3243.38 6064.5 4000.89L2969.15 5788C2312.9 5409.62 1913.04 4693.79 1938.64 3933.37L4973.6 2181.13ZM5036.27 137.289C5638.86 298.754 6172.27 589.536 6614.64 971.778C6704.94 1049.8 6687.24 1191.76 6583.89 1251.43L4973.6 2181.13C4837.27 2108.43 4690.58 2049.99 4534.94 2008.29C3434.4 1713.4 2303.18 2366.51 2008.29 3467.05C1966.58 3622.69 1943.84 3778.95 1938.64 3933.37L328.352 4863.07C225.002 4922.74 93.2119 4867.09 70.7894 4749.87C-39.0562 4175.65 -24.1758 3568.31 137.289 2965.72C709.056 831.852 2902.4 -434.478 5036.27 137.289Z" fill="black"/>
</svg>
